<svg xmlns="http://www.w3.org/2000/svg" xmlns:xlink="http://www.w3.org/1999/xlink" width="500" zoomAndPan="magnify" viewBox="0 0 375 112.499997" height="150" preserveAspectRatio="xMidYMid meet" version="1.2"><defs><clipPath id="6c0514121e"><path d="M 130.542969 28.3125 L 330.527344 28.3125 L 330.527344 84 L 130.542969 84 Z M 130.542969 28.3125 "/></clipPath><clipPath id="11b87686de"><path d="M 147.714844 28.3125 L 313.355469 28.3125 C 317.910156 28.3125 322.277344 30.121094 325.496094 33.339844 C 328.71875 36.5625 330.527344 40.929688 330.527344 45.484375 L 330.527344 66.824219 C 330.527344 71.378906 328.71875 75.746094 325.496094 78.96875 C 322.277344 82.1875 317.910156 83.996094 313.355469 83.996094 L 147.714844 83.996094 C 143.164062 83.996094 138.792969 82.1875 135.574219 78.96875 C 132.355469 75.746094 130.542969 71.378906 130.542969 66.824219 L 130.542969 45.484375 C 130.542969 40.929688 132.355469 36.5625 135.574219 33.339844 C 138.792969 30.121094 143.164062 28.3125 147.714844 28.3125 Z M 147.714844 28.3125 "/></clipPath></defs><g id="f2a4548200"><g clip-rule="nonzero" clip-path="url(#6c0514121e)"><g clip-rule="nonzero" clip-path="url(#11b87686de)"><path style="fill:none;stroke-width:30;stroke-linecap:butt;stroke-linejoin:miter;stroke:#000000;stroke-opacity:1;stroke-miterlimit:4;" d="M 22.995397 0.00234847 L 244.831153 0.00234847 C 250.931061 0.00234847 256.779858 2.424525 261.090599 6.735266 C 265.406571 11.051238 267.828747 16.900035 267.828747 22.999943 L 267.828747 51.579528 C 267.828747 57.679436 265.406571 63.528233 261.090599 67.844205 C 256.779858 72.154946 250.931061 74.577122 244.831153 74.577122 L 22.995397 74.577122 C 16.90072 74.577122 11.046692 72.154946 6.735951 67.844205 C 2.42521 63.528233 -0.00219768 57.679436 -0.00219768 51.579528 L -0.00219768 22.999943 C -0.00219768 16.900035 2.42521 11.051238 6.735951 6.735266 C 11.046692 2.424525 16.90072 0.00234847 22.995397 0.00234847 Z M 22.995397 0.00234847 " transform="matrix(0.746681,0,0,0.746681,130.54461,28.310746)"/></g></g><g style="fill:#000000;fill-opacity:1;"><g transform="translate(0.829651, 84.590281)"><path style="stroke:none" d="M 7.78125 0 L 7.78125 -9.0625 L 40.109375 -9.0625 C 42.585938 -9.0625 44.71875 -9.644531 46.5 -10.8125 C 48.28125 -11.988281 49.664062 -13.5 50.65625 -15.34375 C 51.65625 -17.195312 52.15625 -19.15625 52.15625 -21.21875 C 52.15625 -23.351562 51.675781 -25.328125 50.71875 -27.140625 C 49.757812 -28.953125 48.40625 -30.410156 46.65625 -31.515625 C 44.914062 -32.617188 42.800781 -33.171875 40.3125 -33.171875 L 26.234375 -33.171875 C 22.035156 -33.171875 18.335938 -34.039062 15.140625 -35.78125 C 11.941406 -37.519531 9.4375 -39.9375 7.625 -43.03125 C 5.8125 -46.125 4.90625 -49.628906 4.90625 -53.546875 C 4.90625 -57.523438 5.773438 -61.113281 7.515625 -64.3125 C 9.253906 -67.507812 11.707031 -70.03125 14.875 -71.875 C 18.039062 -73.726562 21.6875 -74.65625 25.8125 -74.65625 L 57.484375 -74.65625 L 57.484375 -65.59375 L 26.765625 -65.59375 C 24.421875 -65.59375 22.359375 -65.039062 20.578125 -63.9375 C 18.804688 -62.832031 17.457031 -61.410156 16.53125 -59.671875 C 15.601562 -57.929688 15.140625 -56.066406 15.140625 -54.078125 C 15.140625 -52.148438 15.582031 -50.316406 16.46875 -48.578125 C 17.363281 -46.835938 18.679688 -45.429688 20.421875 -44.359375 C 22.160156 -43.296875 24.171875 -42.765625 26.453125 -42.765625 L 40.84375 -42.765625 C 45.320312 -42.765625 49.160156 -41.875 52.359375 -40.09375 C 55.566406 -38.320312 58.019531 -35.90625 59.71875 -32.84375 C 61.425781 -29.789062 62.28125 -26.304688 62.28125 -22.390625 C 62.28125 -18.054688 61.410156 -14.203125 59.671875 -10.828125 C 57.929688 -7.453125 55.460938 -4.800781 52.265625 -2.875 C 49.066406 -0.957031 45.40625 0 41.28125 0 Z M 7.78125 0 "/></g></g><g style="fill:#000000;fill-opacity:1;"><g transform="translate(67.704689, 84.590281)"><path style="stroke:none" d="M 35.296875 -55.671875 C 39.421875 -55.671875 43.191406 -55.015625 46.609375 -53.703125 C 50.023438 -52.390625 52.972656 -50.453125 55.453125 -47.890625 C 57.941406 -45.328125 59.878906 -42.25 61.265625 -38.65625 C 62.660156 -35.070312 63.359375 -31.039062 63.359375 -26.5625 C 63.359375 -20.9375 62.203125 -16.023438 59.890625 -11.828125 C 57.578125 -7.640625 54.425781 -4.40625 50.4375 -2.125 C 46.457031 0.144531 41.945312 1.28125 36.90625 1.28125 C 34.132812 1.28125 31.484375 0.816406 28.953125 -0.109375 C 26.429688 -1.035156 24.191406 -2.332031 22.234375 -4 C 20.285156 -5.664062 18.703125 -7.566406 17.484375 -9.703125 L 17.28125 -9.703125 L 17.28125 23.46875 L 7.46875 23.46875 L 7.46875 -26.875 C 7.46875 -32.988281 8.691406 -38.175781 11.140625 -42.4375 C 13.597656 -46.707031 16.921875 -49.976562 21.109375 -52.25 C 25.304688 -54.53125 30.035156 -55.671875 35.296875 -55.671875 Z M 35.296875 -47.25 C 32.023438 -47.25 29.019531 -46.429688 26.28125 -44.796875 C 23.550781 -43.160156 21.382812 -40.847656 19.78125 -37.859375 C 18.1875 -34.878906 17.390625 -31.359375 17.390625 -27.296875 C 17.390625 -23.179688 18.1875 -19.609375 19.78125 -16.578125 C 21.382812 -13.554688 23.550781 -11.226562 26.28125 -9.59375 C 29.019531 -7.957031 32.0625 -7.140625 35.40625 -7.140625 C 38.820312 -7.140625 41.878906 -7.992188 44.578125 -9.703125 C 47.285156 -11.410156 49.4375 -13.753906 51.03125 -16.734375 C 52.632812 -19.722656 53.4375 -23.210938 53.4375 -27.203125 C 53.4375 -31.328125 52.617188 -34.878906 50.984375 -37.859375 C 49.347656 -40.847656 47.160156 -43.160156 44.421875 -44.796875 C 41.679688 -46.429688 38.640625 -47.25 35.296875 -47.25 Z M 35.296875 -47.25 "/></g></g><g style="fill:#000000;fill-opacity:1;"><g transform="translate(327.547621, 84.590281)"><path style="stroke:none" d="M 7.46875 0 L 7.46875 -38.921875 C 7.46875 -43.765625 8.832031 -47.550781 11.5625 -50.28125 C 14.300781 -53.019531 18.09375 -54.390625 22.9375 -54.390625 L 34.125 -54.390625 L 34.125 -45.96875 L 24.75 -45.96875 C 22.394531 -45.96875 20.5625 -45.289062 19.25 -43.9375 C 17.9375 -42.59375 17.28125 -40.710938 17.28125 -38.296875 L 17.28125 0 Z M 7.46875 0 "/></g></g></g></svg>