<svg xmlns="http://www.w3.org/2000/svg" xmlns:xlink="http://www.w3.org/1999/xlink" width="300" zoomAndPan="magnify" viewBox="0 0 224.87999 86.249997" height="115" preserveAspectRatio="xMidYMid meet" version="1.0"><defs><g/><clipPath id="f2893f80d3"><path d="M 81.464844 27.519531 L 205.636719 27.519531 L 205.636719 62.449219 L 81.464844 62.449219 Z M 81.464844 27.519531 " clip-rule="nonzero"/></clipPath><clipPath id="e3d70ff22e"><path d="M 97.820312 27.519531 L 189.3125 27.519531 C 193.652344 27.519531 197.8125 29.242188 200.878906 32.308594 C 203.945312 35.375 205.667969 39.535156 205.667969 43.875 L 205.667969 45.746094 C 205.667969 50.085938 203.945312 54.246094 200.878906 57.3125 C 197.8125 60.378906 193.652344 62.105469 189.3125 62.105469 L 97.820312 62.105469 C 93.484375 62.105469 89.324219 60.378906 86.253906 57.3125 C 83.1875 54.246094 81.464844 50.085938 81.464844 45.746094 L 81.464844 43.875 C 81.464844 39.535156 83.1875 35.375 86.253906 32.308594 C 89.324219 29.242188 93.484375 27.519531 97.820312 27.519531 Z M 97.820312 27.519531 " clip-rule="nonzero"/></clipPath><clipPath id="08fff5373d"><path d="M 0.910156 0 L 88 0 L 88 80 L 0.910156 80 Z M 0.910156 0 " clip-rule="nonzero"/></clipPath><clipPath id="85167f264f"><rect x="0" width="88" y="0" height="80"/></clipPath><clipPath id="a06c7f050c"><path d="M 199 0 L 223.851562 0 L 223.851562 80 L 199 80 Z M 199 0 " clip-rule="nonzero"/></clipPath><clipPath id="fb61f02deb"><path d="M 6 26 L 24.851562 26 L 24.851562 63 L 6 63 Z M 6 26 " clip-rule="nonzero"/></clipPath><clipPath id="c1e3199690"><rect x="0" width="25" y="0" height="80"/></clipPath><clipPath id="721f4ed10c"><rect x="0" width="79" y="0" height="29"/></clipPath></defs><g clip-path="url(#f2893f80d3)"><g clip-path="url(#e3d70ff22e)"><path stroke-linecap="butt" transform="matrix(0.743534, 0, 0, 0.743534, 81.464608, 27.51807)" fill="none" stroke-linejoin="miter" d="M 21.997239 0.00196586 L 145.04761 0.00196586 C 150.884386 0.00196586 156.479495 2.318814 160.60359 6.442908 C 164.727684 10.567003 167.044532 16.162112 167.044532 21.998888 L 167.044532 24.515373 C 167.044532 30.352149 164.727684 35.947258 160.60359 40.071353 C 156.479495 44.195447 150.884386 46.517549 145.04761 46.517549 L 21.997239 46.517549 C 16.165717 46.517549 10.570608 44.195447 6.44126 40.071353 C 2.317165 35.947258 0.000317403 30.352149 0.000317403 24.515373 L 0.000317403 21.998888 C 0.000317403 16.162112 2.317165 10.567003 6.44126 6.442908 C 10.570608 2.318814 16.165717 0.00196586 21.997239 0.00196586 Z M 21.997239 0.00196586 " stroke="#000000" stroke-width="10" stroke-opacity="1" stroke-miterlimit="4"/></g></g><g clip-path="url(#08fff5373d)"><g transform="matrix(1, 0, 0, 1, 0.000000000000000222, 0)"><g clip-path="url(#85167f264f)"><g fill="#000000" fill-opacity="1"><g transform="translate(0.909826, 62.104523)"><g><path d="M 20.34375 0.390625 C 16.894531 0.390625 13.59375 -0.160156 10.4375 -1.265625 C 7.28125 -2.367188 4.835938 -3.820312 3.109375 -5.625 L 5.03125 -9.40625 C 6.707031 -7.726562 8.9375 -6.367188 11.71875 -5.328125 C 14.507812 -4.296875 17.382812 -3.78125 20.34375 -3.78125 C 24.488281 -3.78125 27.597656 -4.539062 29.671875 -6.0625 C 31.753906 -7.582031 32.796875 -9.554688 32.796875 -11.984375 C 32.796875 -13.847656 32.234375 -15.332031 31.109375 -16.4375 C 29.984375 -17.539062 28.601562 -18.390625 26.96875 -18.984375 C 25.332031 -19.578125 23.054688 -20.226562 20.140625 -20.9375 C 16.648438 -21.820312 13.863281 -22.671875 11.78125 -23.484375 C 9.707031 -24.304688 7.929688 -25.554688 6.453125 -27.234375 C 4.972656 -28.910156 4.234375 -31.179688 4.234375 -34.046875 C 4.234375 -36.390625 4.851562 -38.519531 6.09375 -40.4375 C 7.332031 -42.363281 9.234375 -43.898438 11.796875 -45.046875 C 14.359375 -46.191406 17.535156 -46.765625 21.328125 -46.765625 C 23.984375 -46.765625 26.578125 -46.398438 29.109375 -45.671875 C 31.648438 -44.953125 33.847656 -43.953125 35.703125 -42.671875 L 34.046875 -38.75 C 32.109375 -40.03125 30.035156 -40.988281 27.828125 -41.625 C 25.617188 -42.269531 23.453125 -42.59375 21.328125 -42.59375 C 17.265625 -42.59375 14.207031 -41.804688 12.15625 -40.234375 C 10.101562 -38.671875 9.078125 -36.65625 9.078125 -34.1875 C 9.078125 -32.332031 9.640625 -30.84375 10.765625 -29.71875 C 11.890625 -28.59375 13.300781 -27.726562 15 -27.125 C 16.707031 -26.53125 18.992188 -25.878906 21.859375 -25.171875 C 25.265625 -24.335938 28.015625 -23.507812 30.109375 -22.6875 C 32.203125 -21.875 33.976562 -20.640625 35.4375 -18.984375 C 36.894531 -17.328125 37.625 -15.082031 37.625 -12.25 C 37.625 -9.914062 36.992188 -7.785156 35.734375 -5.859375 C 34.484375 -3.941406 32.550781 -2.421875 29.9375 -1.296875 C 27.332031 -0.171875 24.132812 0.390625 20.34375 0.390625 Z M 20.34375 0.390625 "/></g></g></g><g fill="#000000" fill-opacity="1"><g transform="translate(41.650369, 62.104523)"><g><path d="M 24.515625 -35.109375 C 27.785156 -35.109375 30.742188 -34.367188 33.390625 -32.890625 C 36.035156 -31.410156 38.109375 -29.320312 39.609375 -26.625 C 41.117188 -23.9375 41.875 -20.867188 41.875 -17.421875 C 41.875 -13.929688 41.117188 -10.835938 39.609375 -8.140625 C 38.109375 -5.453125 36.046875 -3.367188 33.421875 -1.890625 C 30.796875 -0.410156 27.828125 0.328125 24.515625 0.328125 C 21.679688 0.328125 19.128906 -0.253906 16.859375 -1.421875 C 14.585938 -2.597656 12.722656 -4.3125 11.265625 -6.5625 L 11.265625 12.859375 L 6.5625 12.859375 L 6.5625 -34.84375 L 11.0625 -34.84375 L 11.0625 -27.953125 C 12.476562 -30.253906 14.34375 -32.019531 16.65625 -33.25 C 18.976562 -34.488281 21.597656 -35.109375 24.515625 -35.109375 Z M 24.1875 -3.84375 C 26.613281 -3.84375 28.816406 -4.40625 30.796875 -5.53125 C 32.785156 -6.65625 34.34375 -8.253906 35.46875 -10.328125 C 36.601562 -12.410156 37.171875 -14.773438 37.171875 -17.421875 C 37.171875 -20.078125 36.601562 -22.429688 35.46875 -24.484375 C 34.34375 -26.535156 32.785156 -28.132812 30.796875 -29.28125 C 28.816406 -30.425781 26.613281 -31 24.1875 -31 C 21.707031 -31 19.484375 -30.425781 17.515625 -29.28125 C 15.554688 -28.132812 14.015625 -26.535156 12.890625 -24.484375 C 11.765625 -22.429688 11.203125 -20.078125 11.203125 -17.421875 C 11.203125 -14.773438 11.765625 -12.410156 12.890625 -10.328125 C 14.015625 -8.253906 15.554688 -6.65625 17.515625 -5.53125 C 19.484375 -4.40625 21.707031 -3.84375 24.1875 -3.84375 Z M 24.1875 -3.84375 "/></g></g></g></g></g></g><g clip-path="url(#a06c7f050c)"><g transform="matrix(1, 0, 0, 1, 199, 0)"><g clip-path="url(#c1e3199690)"><g clip-path="url(#fb61f02deb)"><g fill="#000000" fill-opacity="1"><g transform="translate(0.157569, 62.104523)"><g><path d="M 11.0625 -28.03125 C 12.164062 -30.363281 13.8125 -32.125 16 -33.3125 C 18.1875 -34.507812 20.890625 -35.109375 24.109375 -35.109375 L 24.109375 -30.546875 L 22.984375 -30.609375 C 19.316406 -30.609375 16.445312 -29.476562 14.375 -27.21875 C 12.300781 -24.96875 11.265625 -21.8125 11.265625 -17.75 L 11.265625 0 L 6.5625 0 L 6.5625 -34.84375 L 11.0625 -34.84375 Z M 11.0625 -28.03125 "/></g></g></g></g></g></g></g><g transform="matrix(1, 0, 0, 1, 100, 30)"><g clip-path="url(#721f4ed10c)"><g fill="#000000" fill-opacity="1"><g transform="translate(1.301383, 22.388772)"><g><path d="M 18.421875 -15.328125 L 18.421875 0 L 16.875 0 L 16.875 -12.265625 L 10.84375 -1.953125 L 10.078125 -1.953125 L 4.046875 -12.203125 L 4.046875 0 L 2.5 0 L 2.5 -15.328125 L 3.828125 -15.328125 L 10.5 -3.96875 L 17.09375 -15.328125 Z M 18.421875 -15.328125 "/></g></g></g><g fill="#000000" fill-opacity="1"><g transform="translate(22.219635, 22.388772)"><g><path d="M 13.34375 -1.40625 L 13.34375 0 L 2.5 0 L 2.5 -15.328125 L 13.015625 -15.328125 L 13.015625 -13.9375 L 4.125 -13.9375 L 4.125 -8.484375 L 12.046875 -8.484375 L 12.046875 -7.09375 L 4.125 -7.09375 L 4.125 -1.40625 Z M 13.34375 -1.40625 "/></g></g></g><g fill="#000000" fill-opacity="1"><g transform="translate(36.873358, 22.388772)"><g><path d="M 2.5 -15.328125 L 8.734375 -15.328125 C 10.359375 -15.328125 11.789062 -15.003906 13.03125 -14.359375 C 14.269531 -13.710938 15.234375 -12.804688 15.921875 -11.640625 C 16.609375 -10.484375 16.953125 -9.160156 16.953125 -7.671875 C 16.953125 -6.179688 16.609375 -4.851562 15.921875 -3.6875 C 15.234375 -2.53125 14.269531 -1.625 13.03125 -0.96875 C 11.789062 -0.320312 10.359375 0 8.734375 0 L 2.5 0 Z M 8.65625 -1.40625 C 10 -1.40625 11.171875 -1.671875 12.171875 -2.203125 C 13.179688 -2.734375 13.960938 -3.46875 14.515625 -4.40625 C 15.078125 -5.351562 15.359375 -6.441406 15.359375 -7.671875 C 15.359375 -8.890625 15.078125 -9.96875 14.515625 -10.90625 C 13.960938 -11.851562 13.179688 -12.59375 12.171875 -13.125 C 11.171875 -13.664062 10 -13.9375 8.65625 -13.9375 L 4.125 -13.9375 L 4.125 -1.40625 Z M 8.65625 -1.40625 "/></g></g></g><g fill="#000000" fill-opacity="1"><g transform="translate(54.966002, 22.388772)"><g><path d="M 2.5 -15.328125 L 4.125 -15.328125 L 4.125 0 L 2.5 0 Z M 2.5 -15.328125 "/></g></g></g><g fill="#000000" fill-opacity="1"><g transform="translate(61.58099, 22.388772)"><g><path d="M 12.109375 -4.09375 L 3.578125 -4.09375 L 1.734375 0 L 0.046875 0 L 7.046875 -15.328125 L 8.65625 -15.328125 L 15.65625 0 L 13.953125 0 Z M 11.515625 -5.40625 L 7.84375 -13.640625 L 4.15625 -5.40625 Z M 11.515625 -5.40625 "/></g></g></g></g></g></svg>