<svg xmlns="http://www.w3.org/2000/svg" xmlns:xlink="http://www.w3.org/1999/xlink" width="300" zoomAndPan="magnify" viewBox="0 0 224.87999 86.249997" height="115" preserveAspectRatio="xMidYMid meet" version="1.0"><defs><g/><clipPath id="e6d129357a"><rect x="0" width="194" y="0" height="68"/></clipPath></defs><g transform="matrix(1, 0, 0, 1, 18, 6)"><g clip-path="url(#e6d129357a)"><g fill="#ffffff" fill-opacity="1"><g transform="translate(21.294803, 32.328085)"><g><path d="M 29.75 -12.296875 L 27.375 -5.71875 C 27.207031 -5.269531 26.957031 -4.863281 26.625 -4.5 C 26.300781 -4.144531 25.914062 -3.835938 25.46875 -3.578125 L 19.90625 -0.453125 C 19.644531 -0.285156 19.378906 -0.164062 19.109375 -0.09375 C 18.835938 -0.03125 18.5625 0 18.28125 0 L 1.359375 0 L 3.0625 -4.71875 L 16.125 -4.71875 C 16.539062 -4.71875 16.9375 -4.863281 17.3125 -5.15625 C 17.695312 -5.445312 17.960938 -5.796875 18.109375 -6.203125 L 18.53125 -7.28125 L 4 -7.28125 L 6.375 -13.859375 C 6.738281 -14.804688 7.398438 -15.550781 8.359375 -16.09375 L 13.859375 -19.125 C 14.140625 -19.289062 14.414062 -19.40625 14.6875 -19.46875 C 14.957031 -19.539062 15.222656 -19.578125 15.484375 -19.578125 L 32.390625 -19.578125 L 30.6875 -14.859375 L 17.6875 -14.859375 C 17.257812 -14.859375 16.84375 -14.71875 16.4375 -14.4375 C 16.039062 -14.15625 15.765625 -13.804688 15.609375 -13.390625 L 15.21875 -12.296875 Z M 29.75 -12.296875 "/></g></g></g><g fill="#ffffff" fill-opacity="1"><g transform="translate(47.939982, 32.328085)"><g><path d="M 27.375 -16.9375 C 28.269531 -16.9375 28.914062 -16.617188 29.3125 -15.984375 C 29.71875 -15.359375 29.753906 -14.59375 29.421875 -13.6875 L 24.453125 0 L 16.21875 0 L 20.421875 -11.578125 C 20.546875 -11.941406 20.519531 -12.242188 20.34375 -12.484375 C 20.175781 -12.722656 19.921875 -12.84375 19.578125 -12.84375 L 14.375 -12.84375 L 9.71875 0 L 1.46875 0 L 7.609375 -16.9375 L 15.84375 -16.9375 L 15.015625 -14.625 L 18.890625 -16.9375 Z M 27.375 -16.9375 "/></g></g></g><g fill="#ffffff" fill-opacity="1"><g transform="translate(73.863397, 32.328085)"><g><path d="M 3.609375 -3.0625 C 3.109375 -3.5625 3 -4.195312 3.28125 -4.96875 L 5.828125 -12 C 6.429688 -13.6875 7.445312 -14.929688 8.875 -15.734375 C 10.3125 -16.535156 12.003906 -16.9375 13.953125 -16.9375 L 23.21875 -16.9375 C 25.1875 -16.9375 26.59375 -16.535156 27.4375 -15.734375 C 28.289062 -14.929688 28.421875 -13.6875 27.828125 -12 L 27.046875 -9.890625 C 26.765625 -9.085938 26.191406 -8.457031 25.328125 -8 L 21.6875 -6.140625 C 21.226562 -5.859375 20.753906 -5.71875 20.265625 -5.71875 L 14.046875 -5.71875 L 12.6875 -8.09375 L 11.703125 -5.359375 C 11.578125 -4.992188 11.59375 -4.691406 11.75 -4.453125 C 11.914062 -4.210938 12.171875 -4.09375 12.515625 -4.09375 L 24.1875 -4.09375 L 22.703125 0 L 7.578125 0 C 7.359375 0 7.144531 -0.03125 6.9375 -0.09375 C 6.726562 -0.15625 6.550781 -0.253906 6.40625 -0.390625 Z M 13.984375 -11.578125 L 13.328125 -9.8125 L 18.046875 -9.8125 C 18.390625 -9.8125 18.734375 -9.941406 19.078125 -10.203125 C 19.429688 -10.460938 19.679688 -10.769531 19.828125 -11.125 L 20 -11.578125 C 20.125 -11.941406 20.097656 -12.242188 19.921875 -12.484375 C 19.753906 -12.722656 19.5 -12.84375 19.15625 -12.84375 L 15.734375 -12.84375 C 15.367188 -12.84375 15.015625 -12.722656 14.671875 -12.484375 C 14.335938 -12.242188 14.109375 -11.941406 13.984375 -11.578125 Z M 13.984375 -11.578125 "/></g></g></g><g fill="#ffffff" fill-opacity="1"><g transform="translate(98.37335, 32.328085)"><g><path d="M 24.328125 -16.9375 L 22.46875 -11.796875 L 17 -11.796875 C 16.851562 -11.796875 16.726562 -11.785156 16.625 -11.765625 C 16.53125 -11.742188 16.40625 -11.679688 16.25 -11.578125 L 13.75 -10.109375 L 10.078125 0 L 1.59375 0 L 7.734375 -16.9375 L 14.796875 -16.9375 L 15.015625 -14.625 L 18.671875 -16.9375 Z M 24.328125 -16.9375 "/></g></g></g><g fill="#ffffff" fill-opacity="1"><g transform="translate(117.079108, 32.328085)"><g><path d="M 7.609375 -16.9375 L 16.0625 -16.9375 L 15.609375 -15.703125 L 17.71875 -16.9375 L 26.234375 -16.9375 C 27.554688 -16.9375 28.441406 -16.582031 28.890625 -15.875 C 29.335938 -15.175781 29.320312 -14.164062 28.84375 -12.84375 L 25.8125 -4.515625 C 25.488281 -3.628906 25.007812 -2.84375 24.375 -2.15625 C 23.75 -1.476562 23.03125 -0.945312 22.21875 -0.5625 C 21.40625 -0.1875 20.554688 0 19.671875 0 L 12.84375 0 L 10.671875 -2.140625 L 8.21875 4.625 L -0.203125 4.625 Z M 17.59375 -5.359375 L 19.875 -11.578125 C 20.019531 -11.960938 20.007812 -12.242188 19.84375 -12.421875 C 19.6875 -12.597656 19.457031 -12.710938 19.15625 -12.765625 C 18.851562 -12.816406 18.546875 -12.84375 18.234375 -12.84375 L 14.59375 -12.84375 L 11.40625 -4.09375 L 15.875 -4.09375 C 16.238281 -4.09375 16.585938 -4.210938 16.921875 -4.453125 C 17.253906 -4.691406 17.476562 -4.992188 17.59375 -5.359375 Z M 17.59375 -5.359375 "/></g></g></g><g fill="#ffffff" fill-opacity="1"><g transform="translate(142.641638, 32.328085)"><g><path d="M 26.34375 -16.9375 C 27.25 -16.9375 27.90625 -16.617188 28.3125 -15.984375 C 28.726562 -15.359375 28.765625 -14.59375 28.421875 -13.6875 L 23.46875 0 L 15.765625 0 L 15.875 -2.140625 L 12.21875 0 L 6.625 0 C 6.132812 0 5.734375 -0.128906 5.421875 -0.390625 L 3.125 -2.21875 C 2.882812 -2.445312 2.742188 -2.734375 2.703125 -3.078125 C 2.660156 -3.429688 2.710938 -3.800781 2.859375 -4.1875 L 4.234375 -8 C 4.484375 -8.601562 4.90625 -9.066406 5.5 -9.390625 L 7.640625 -10.5 C 7.796875 -10.59375 7.957031 -10.660156 8.125 -10.703125 C 8.300781 -10.742188 8.46875 -10.765625 8.625 -10.765625 L 18.890625 -10.765625 L 19.1875 -11.578125 C 19.3125 -11.941406 19.296875 -12.242188 19.140625 -12.484375 C 18.992188 -12.722656 18.726562 -12.84375 18.34375 -12.84375 L 7.40625 -12.84375 L 8.875 -16.9375 Z M 11.640625 -5.359375 C 11.515625 -4.992188 11.53125 -4.691406 11.6875 -4.453125 C 11.851562 -4.210938 12.109375 -4.09375 12.453125 -4.09375 L 16.453125 -4.09375 L 17.53125 -7.0625 L 12.265625 -7.0625 Z M 11.640625 -5.359375 "/></g></g></g><g fill="#ffffff" fill-opacity="1"><g transform="translate(0.632477, 59.398482)"><g><path d="M 31.3125 -19.578125 L 29.59375 -14.859375 L 18.671875 -14.859375 C 18.296875 -14.859375 17.90625 -14.71875 17.5 -14.4375 C 17.101562 -14.15625 16.820312 -13.804688 16.65625 -13.390625 L 14.046875 -6.203125 C 13.910156 -5.796875 13.941406 -5.445312 14.140625 -5.15625 C 14.335938 -4.863281 14.644531 -4.71875 15.0625 -4.71875 L 25.921875 -4.71875 L 24.21875 0 L 7.578125 0 C 6.953125 0 6.5 -0.148438 6.21875 -0.453125 L 3.546875 -2.609375 C 3.285156 -2.878906 3.128906 -3.207031 3.078125 -3.59375 C 3.035156 -3.988281 3.082031 -4.394531 3.21875 -4.8125 L 6.53125 -13.890625 C 7.226562 -15.835938 8.40625 -17.269531 10.0625 -18.1875 C 11.71875 -19.113281 13.664062 -19.578125 15.90625 -19.578125 Z M 31.3125 -19.578125 "/></g></g></g><g fill="#ffffff" fill-opacity="1"><g transform="translate(26.104788, 59.398482)"><g><path d="M 6.625 0 C 6.09375 0 5.707031 -0.128906 5.46875 -0.390625 L 3.09375 -2.21875 C 2.65625 -2.726562 2.578125 -3.382812 2.859375 -4.1875 L 5.71875 -12 C 6.320312 -13.6875 7.335938 -14.929688 8.765625 -15.734375 C 10.203125 -16.535156 11.894531 -16.9375 13.84375 -16.9375 L 24.578125 -16.9375 C 25.097656 -16.9375 25.488281 -16.796875 25.75 -16.515625 L 28.0625 -14.703125 C 28.5625 -14.160156 28.671875 -13.507812 28.390625 -12.75 L 25.53125 -4.9375 C 24.914062 -3.25 23.894531 -2.003906 22.46875 -1.203125 C 21.039062 -0.398438 19.347656 0 17.390625 0 Z M 11.515625 -5.359375 C 11.398438 -4.992188 11.425781 -4.691406 11.59375 -4.453125 C 11.757812 -4.210938 12.023438 -4.09375 12.390625 -4.09375 L 15.671875 -4.09375 C 16.015625 -4.09375 16.351562 -4.210938 16.6875 -4.453125 C 17.03125 -4.691406 17.265625 -4.992188 17.390625 -5.359375 L 19.671875 -11.578125 C 19.796875 -11.941406 19.769531 -12.242188 19.59375 -12.484375 C 19.425781 -12.722656 19.160156 -12.84375 18.796875 -12.84375 L 15.515625 -12.84375 C 15.203125 -12.84375 14.867188 -12.722656 14.515625 -12.484375 C 14.160156 -12.242188 13.925781 -11.941406 13.8125 -11.578125 Z M 11.515625 -5.359375 "/></g></g></g><g fill="#ffffff" fill-opacity="1"><g transform="translate(51.186142, 59.398482)"><g><path d="M 26.34375 -16.9375 C 27.25 -16.9375 27.90625 -16.617188 28.3125 -15.984375 C 28.726562 -15.359375 28.765625 -14.59375 28.421875 -13.6875 L 23.46875 0 L 15.765625 0 L 15.875 -2.140625 L 12.21875 0 L 6.625 0 C 6.132812 0 5.734375 -0.128906 5.421875 -0.390625 L 3.125 -2.21875 C 2.882812 -2.445312 2.742188 -2.734375 2.703125 -3.078125 C 2.660156 -3.429688 2.710938 -3.800781 2.859375 -4.1875 L 4.234375 -8 C 4.484375 -8.601562 4.90625 -9.066406 5.5 -9.390625 L 7.640625 -10.5 C 7.796875 -10.59375 7.957031 -10.660156 8.125 -10.703125 C 8.300781 -10.742188 8.46875 -10.765625 8.625 -10.765625 L 18.890625 -10.765625 L 19.1875 -11.578125 C 19.3125 -11.941406 19.296875 -12.242188 19.140625 -12.484375 C 18.992188 -12.722656 18.726562 -12.84375 18.34375 -12.84375 L 7.40625 -12.84375 L 8.875 -16.9375 Z M 11.640625 -5.359375 C 11.515625 -4.992188 11.53125 -4.691406 11.6875 -4.453125 C 11.851562 -4.210938 12.109375 -4.09375 12.453125 -4.09375 L 16.453125 -4.09375 L 17.53125 -7.0625 L 12.265625 -7.0625 Z M 11.640625 -5.359375 "/></g></g></g><g fill="#ffffff" fill-opacity="1"><g transform="translate(76.117129, 59.398482)"><g><path d="M 10.859375 -16.9375 L 27.609375 -16.9375 L 26.140625 -12.84375 L 16.484375 -12.84375 C 16.160156 -12.84375 15.820312 -12.722656 15.46875 -12.484375 C 15.125 -12.242188 14.890625 -11.941406 14.765625 -11.578125 L 12.484375 -5.359375 C 12.359375 -4.992188 12.378906 -4.691406 12.546875 -4.453125 C 12.722656 -4.210938 12.972656 -4.09375 13.296875 -4.09375 L 22.953125 -4.09375 L 21.46875 0 L 7.578125 0 C 7.359375 0 7.144531 -0.03125 6.9375 -0.09375 C 6.726562 -0.15625 6.550781 -0.253906 6.40625 -0.390625 L 3.609375 -3.0625 C 3.109375 -3.5625 3 -4.195312 3.28125 -4.96875 L 6.4375 -13.6875 C 6.65625 -14.289062 7 -14.835938 7.46875 -15.328125 C 7.945312 -15.816406 8.484375 -16.207031 9.078125 -16.5 C 9.679688 -16.789062 10.273438 -16.9375 10.859375 -16.9375 Z M 10.859375 -16.9375 "/></g></g></g><g fill="#ffffff" fill-opacity="1"><g transform="translate(98.852743, 59.398482)"><g><path d="M 24.1875 0 L 15.671875 0 L 19.875 -11.578125 C 20 -11.941406 19.984375 -12.242188 19.828125 -12.484375 C 19.679688 -12.722656 19.425781 -12.84375 19.0625 -12.84375 L 14.59375 -12.84375 L 9.921875 0 L 1.46875 0 L 9.359375 -21.6875 L 17.8125 -21.6875 L 15.609375 -15.703125 L 17.71875 -16.9375 L 26.234375 -16.9375 C 27.554688 -16.9375 28.441406 -16.582031 28.890625 -15.875 C 29.335938 -15.175781 29.320312 -14.164062 28.84375 -12.84375 Z M 24.1875 0 "/></g></g></g><g fill="#ffffff" fill-opacity="1"><g transform="translate(124.505485, 59.398482)"><g><path d="M 8.125 -16.9375 L 16.421875 -16.9375 L 10.28125 0 L 1.984375 0 Z M 10.46875 -23.375 L 18.765625 -23.375 L 17.046875 -18.625 L 8.75 -18.625 Z M 10.46875 -23.375 "/></g></g></g><g fill="#ffffff" fill-opacity="1"><g transform="translate(136.745433, 59.398482)"><g><path d="M 27.375 -16.9375 C 28.269531 -16.9375 28.914062 -16.617188 29.3125 -15.984375 C 29.71875 -15.359375 29.753906 -14.59375 29.421875 -13.6875 L 24.453125 0 L 16.21875 0 L 20.421875 -11.578125 C 20.546875 -11.941406 20.519531 -12.242188 20.34375 -12.484375 C 20.175781 -12.722656 19.921875 -12.84375 19.578125 -12.84375 L 14.375 -12.84375 L 9.71875 0 L 1.46875 0 L 7.609375 -16.9375 L 15.84375 -16.9375 L 15.015625 -14.625 L 18.890625 -16.9375 Z M 27.375 -16.9375 "/></g></g></g><g fill="#ffffff" fill-opacity="1"><g transform="translate(162.668842, 59.398482)"><g><path d="M 30.234375 -16.9375 L 24.21875 -0.328125 C 24.070312 0.046875 23.847656 0.394531 23.546875 0.71875 C 23.242188 1.039062 22.894531 1.320312 22.5 1.5625 L 17.71875 4.234375 C 17.5 4.378906 17.257812 4.476562 17 4.53125 C 16.738281 4.59375 16.492188 4.625 16.265625 4.625 L 1.140625 4.625 L 2.640625 0.546875 L 14.140625 0.546875 C 14.472656 0.546875 14.8125 0.421875 15.15625 0.171875 C 15.5 -0.0664062 15.726562 -0.363281 15.84375 -0.71875 L 16.78125 -3.28125 L 13.109375 -1.140625 L 6.28125 -1.140625 C 4.957031 -1.140625 4.03125 -1.554688 3.5 -2.390625 C 2.96875 -3.222656 2.941406 -4.3125 3.421875 -5.65625 L 6.046875 -12.84375 C 6.523438 -14.164062 7.238281 -15.175781 8.1875 -15.875 C 9.144531 -16.582031 10.285156 -16.9375 11.609375 -16.9375 L 20.125 -16.9375 L 21.296875 -15.703125 L 21.75 -16.9375 Z M 12.234375 -6.5 C 12.097656 -6.132812 12.109375 -5.832031 12.265625 -5.59375 C 12.429688 -5.351562 12.691406 -5.234375 13.046875 -5.234375 L 17.5 -5.234375 L 20.265625 -12.84375 L 15.828125 -12.84375 C 15.460938 -12.84375 15.113281 -12.722656 14.78125 -12.484375 C 14.445312 -12.242188 14.222656 -11.941406 14.109375 -11.578125 Z M 12.234375 -6.5 "/></g></g></g></g></g></svg>