<svg xmlns="http://www.w3.org/2000/svg" xmlns:xlink="http://www.w3.org/1999/xlink" width="500" zoomAndPan="magnify" viewBox="0 0 375 112.499997" height="150" preserveAspectRatio="xMidYMid meet" version="1.2"><defs><clipPath id="bb92855100"><path d="M 130.542969 28.3125 L 330.527344 28.3125 L 330.527344 84 L 130.542969 84 Z M 130.542969 28.3125 "/></clipPath><clipPath id="7bc7d94b3f"><path d="M 147.714844 28.3125 L 313.355469 28.3125 C 317.910156 28.3125 322.277344 30.121094 325.496094 33.339844 C 328.71875 36.5625 330.527344 40.929688 330.527344 45.484375 L 330.527344 66.824219 C 330.527344 71.378906 328.71875 75.746094 325.496094 78.96875 C 322.277344 82.1875 317.910156 83.996094 313.355469 83.996094 L 147.714844 83.996094 C 143.164062 83.996094 138.792969 82.1875 135.574219 78.96875 C 132.355469 75.746094 130.542969 71.378906 130.542969 66.824219 L 130.542969 45.484375 C 130.542969 40.929688 132.355469 36.5625 135.574219 33.339844 C 138.792969 30.121094 143.164062 28.3125 147.714844 28.3125 Z M 147.714844 28.3125 "/></clipPath></defs><g id="0d4e8f1c09"><g clip-rule="nonzero" clip-path="url(#bb92855100)"><g clip-rule="nonzero" clip-path="url(#7bc7d94b3f)"><path style="fill:none;stroke-width:10;stroke-linecap:butt;stroke-linejoin:miter;stroke:#1800ad;stroke-opacity:1;stroke-miterlimit:4;" d="M 22.995397 0.00234847 L 244.831153 0.00234847 C 250.931061 0.00234847 256.779858 2.424525 261.090599 6.735266 C 265.406571 11.051238 267.828747 16.900035 267.828747 22.999943 L 267.828747 51.579528 C 267.828747 57.679436 265.406571 63.528233 261.090599 67.844205 C 256.779858 72.154946 250.931061 74.577122 244.831153 74.577122 L 22.995397 74.577122 C 16.90072 74.577122 11.046692 72.154946 6.735951 67.844205 C 2.42521 63.528233 -0.00219768 57.679436 -0.00219768 51.579528 L -0.00219768 22.999943 C -0.00219768 16.900035 2.42521 11.051238 6.735951 6.735266 C 11.046692 2.424525 16.90072 0.00234847 22.995397 0.00234847 Z M 22.995397 0.00234847 " transform="matrix(0.746681,0,0,0.746681,130.54461,28.310746)"/></g></g><g style="fill:#1800ad;fill-opacity:1;"><g transform="translate(12.029872, 82.350237)"><path style="stroke:none" d="M 44.578125 -64.734375 C 42.804688 -67.867188 40.832031 -70.109375 38.65625 -71.453125 C 36.488281 -72.804688 33.878906 -73.484375 30.828125 -73.484375 C 26.910156 -73.484375 23.691406 -72.273438 21.171875 -69.859375 C 18.648438 -67.441406 17.390625 -64.488281 17.390625 -61 C 17.390625 -58.300781 18.4375 -55.988281 20.53125 -54.0625 C 22.625 -52.144531 25.164062 -50.507812 28.15625 -49.15625 C 31.144531 -47.8125 33.847656 -46.640625 36.265625 -45.640625 C 38.679688 -44.648438 41.488281 -43.160156 44.6875 -41.171875 C 47.882812 -39.179688 50.335938 -36.691406 52.046875 -33.703125 C 53.753906 -30.710938 54.609375 -27.300781 54.609375 -23.46875 C 54.609375 -19.0625 53.503906 -14.9375 51.296875 -11.09375 C 49.097656 -7.25 46.039062 -4.207031 42.125 -1.96875 C 38.21875 0.269531 33.953125 1.390625 29.328125 1.390625 C 23.003906 1.390625 17.582031 -0.472656 13.0625 -4.203125 C 8.550781 -7.941406 5.617188 -13.007812 4.265625 -19.40625 L 13.015625 -21.859375 C 13.722656 -17.453125 15.550781 -13.863281 18.5 -11.09375 C 21.457031 -8.320312 24.992188 -6.9375 29.109375 -6.9375 C 33.597656 -6.9375 37.476562 -8.460938 40.75 -11.515625 C 44.019531 -14.578125 45.65625 -18.273438 45.65625 -22.609375 C 45.65625 -26.453125 44.410156 -29.597656 41.921875 -32.046875 C 39.429688 -34.503906 34.878906 -37.046875 28.265625 -39.671875 C 21.648438 -42.304688 16.6875 -45.257812 13.375 -48.53125 C 10.070312 -51.800781 8.421875 -56.066406 8.421875 -61.328125 C 8.421875 -67.296875 10.625 -72.203125 15.03125 -76.046875 C 19.445312 -79.890625 24.75 -81.8125 30.9375 -81.8125 C 35.476562 -81.8125 39.507812 -80.742188 43.03125 -78.609375 C 46.550781 -76.472656 49.453125 -73.378906 51.734375 -69.328125 Z M 44.578125 -64.734375 "/></g></g><g style="fill:#1800ad;fill-opacity:1;"><g transform="translate(71.65211, 82.350237)"><path style="stroke:none" d="M 16.421875 -7.046875 L 16.21875 -7.046875 L 16.21875 28.15625 L 7.671875 28.15625 L 7.671875 -50.125 L 16.21875 -50.125 L 16.21875 -42.984375 L 16.421875 -42.984375 C 18.484375 -45.753906 21.007812 -47.867188 24 -49.328125 C 26.988281 -50.785156 30.222656 -51.515625 33.703125 -51.515625 C 38.179688 -51.515625 42.269531 -50.335938 45.96875 -47.984375 C 49.664062 -45.640625 52.546875 -42.421875 54.609375 -38.328125 C 56.671875 -34.242188 57.703125 -29.785156 57.703125 -24.953125 C 57.703125 -20.117188 56.707031 -15.65625 54.71875 -11.5625 C 52.726562 -7.476562 49.863281 -4.296875 46.125 -2.015625 C 42.394531 0.253906 38.21875 1.390625 33.59375 1.390625 C 30.1875 1.390625 26.988281 0.679688 24 -0.734375 C 21.007812 -2.160156 18.484375 -4.265625 16.421875 -7.046875 Z M 32 -43.625 C 29.226562 -43.625 26.597656 -42.875 24.109375 -41.375 C 21.617188 -39.882812 19.609375 -37.71875 18.078125 -34.875 C 16.546875 -32.03125 15.78125 -28.9375 15.78125 -25.59375 C 15.78125 -20.257812 17.289062 -15.742188 20.3125 -12.046875 C 23.332031 -8.347656 27.296875 -6.5 32.203125 -6.5 C 35.546875 -6.5 38.5 -7.300781 41.0625 -8.90625 C 43.625 -10.507812 45.578125 -12.765625 46.921875 -15.671875 C 48.273438 -18.585938 48.953125 -21.859375 48.953125 -25.484375 C 48.953125 -30.816406 47.382812 -35.171875 44.25 -38.546875 C 41.125 -41.929688 37.039062 -43.625 32 -43.625 Z M 32 -43.625 "/></g></g><g style="fill:#1800ad;fill-opacity:1;"><g transform="translate(327.232615, 82.350237)"><path style="stroke:none" d="M 31.140625 -41.375 C 30.285156 -42.019531 29.484375 -42.554688 28.734375 -42.984375 C 27.992188 -43.410156 27.09375 -43.625 26.03125 -43.625 C 22.820312 -43.625 20.382812 -42.203125 18.71875 -39.359375 C 17.050781 -36.515625 16.21875 -31.925781 16.21875 -25.59375 L 16.21875 0 L 7.671875 0 L 7.671875 -50.125 L 16.21875 -50.125 L 16.21875 -44.6875 L 16.421875 -44.6875 C 18.484375 -47.457031 20.3125 -49.285156 21.90625 -50.171875 C 23.507812 -51.066406 25.378906 -51.515625 27.515625 -51.515625 C 28.796875 -51.515625 30.09375 -51.300781 31.40625 -50.875 C 32.726562 -50.445312 33.992188 -49.878906 35.203125 -49.171875 Z M 31.140625 -41.375 "/></g></g></g></svg>