<svg xmlns="http://www.w3.org/2000/svg" xmlns:xlink="http://www.w3.org/1999/xlink" width="500" zoomAndPan="magnify" viewBox="0 0 375 112.499997" height="150" preserveAspectRatio="xMidYMid meet" version="1.2"><defs><clipPath id="466ad3aa53"><path d="M 130.542969 28.3125 L 330.527344 28.3125 L 330.527344 84 L 130.542969 84 Z M 130.542969 28.3125 "/></clipPath><clipPath id="5e13b74617"><path d="M 147.714844 28.3125 L 313.355469 28.3125 C 317.910156 28.3125 322.277344 30.121094 325.496094 33.339844 C 328.71875 36.5625 330.527344 40.929688 330.527344 45.484375 L 330.527344 66.824219 C 330.527344 71.378906 328.71875 75.746094 325.496094 78.96875 C 322.277344 82.1875 317.910156 83.996094 313.355469 83.996094 L 147.714844 83.996094 C 143.164062 83.996094 138.792969 82.1875 135.574219 78.96875 C 132.355469 75.746094 130.542969 71.378906 130.542969 66.824219 L 130.542969 45.484375 C 130.542969 40.929688 132.355469 36.5625 135.574219 33.339844 C 138.792969 30.121094 143.164062 28.3125 147.714844 28.3125 Z M 147.714844 28.3125 "/></clipPath><clipPath id="9ddc7a12cd"><path d="M 0.828125 0 L 140 0 L 140 112.003906 L 0.828125 112.003906 Z M 0.828125 0 "/></clipPath><clipPath id="415fa06083"><rect x="0" width="140" y="0" height="113"/></clipPath><clipPath id="161687075b"><path d="M 331 0 L 374.167969 0 L 374.167969 112.003906 L 331 112.003906 Z M 331 0 "/></clipPath><clipPath id="e3f2c05ab2"><rect x="0" width="44" y="0" height="113"/></clipPath></defs><g id="96a37ae7a5"><g clip-rule="nonzero" clip-path="url(#466ad3aa53)"><g clip-rule="nonzero" clip-path="url(#5e13b74617)"><path style="fill:none;stroke-width:10;stroke-linecap:butt;stroke-linejoin:miter;stroke:#000000;stroke-opacity:1;stroke-miterlimit:4;" d="M 22.995397 0.00234847 L 244.831153 0.00234847 C 250.931061 0.00234847 256.779858 2.424525 261.090599 6.735266 C 265.406571 11.051238 267.828747 16.900035 267.828747 22.999943 L 267.828747 51.579528 C 267.828747 57.679436 265.406571 63.528233 261.090599 67.844205 C 256.779858 72.154946 250.931061 74.577122 244.831153 74.577122 L 22.995397 74.577122 C 16.90072 74.577122 11.046692 72.154946 6.735951 67.844205 C 2.42521 63.528233 -0.00219768 57.679436 -0.00219768 51.579528 L -0.00219768 22.999943 C -0.00219768 16.900035 2.42521 11.051238 6.735951 6.735266 C 11.046692 2.424525 16.90072 0.00234847 22.995397 0.00234847 Z M 22.995397 0.00234847 " transform="matrix(0.746681,0,0,0.746681,130.54461,28.310746)"/></g></g><g clip-rule="nonzero" clip-path="url(#9ddc7a12cd)"><g transform="matrix(1,0,0,1,0.000000000000000111,0)"><g clip-path="url(#415fa06083)"><g style="fill:#000000;fill-opacity:1;"><g transform="translate(0.829651, 84.002087)"><path style="stroke:none" d="M 32.75 0.640625 C 27.195312 0.640625 21.878906 -0.242188 16.796875 -2.015625 C 11.710938 -3.796875 7.785156 -6.144531 5.015625 -9.0625 L 8.109375 -15.140625 C 10.804688 -12.441406 14.394531 -10.253906 18.875 -8.578125 C 23.351562 -6.910156 27.976562 -6.078125 32.75 -6.078125 C 39.4375 -6.078125 44.445312 -7.300781 47.78125 -9.75 C 51.125 -12.207031 52.796875 -15.394531 52.796875 -19.3125 C 52.796875 -22.289062 51.890625 -24.671875 50.078125 -26.453125 C 48.265625 -28.234375 46.039062 -29.601562 43.40625 -30.5625 C 40.78125 -31.519531 37.117188 -32.566406 32.421875 -33.703125 C 26.804688 -35.128906 22.328125 -36.5 18.984375 -37.8125 C 15.640625 -39.125 12.773438 -41.128906 10.390625 -43.828125 C 8.015625 -46.535156 6.828125 -50.203125 6.828125 -54.828125 C 6.828125 -58.597656 7.820312 -62.03125 9.8125 -65.125 C 11.800781 -68.21875 14.859375 -70.6875 18.984375 -72.53125 C 23.109375 -74.382812 28.226562 -75.3125 34.34375 -75.3125 C 38.613281 -75.3125 42.789062 -74.722656 46.875 -73.546875 C 50.96875 -72.378906 54.507812 -70.765625 57.5 -68.703125 L 54.828125 -62.40625 C 51.703125 -64.46875 48.359375 -66.015625 44.796875 -67.046875 C 41.242188 -68.078125 37.757812 -68.59375 34.34375 -68.59375 C 27.800781 -68.59375 22.875 -67.328125 19.5625 -64.796875 C 16.257812 -62.273438 14.609375 -59.023438 14.609375 -55.046875 C 14.609375 -52.054688 15.515625 -49.65625 17.328125 -47.84375 C 19.140625 -46.03125 21.414062 -44.640625 24.15625 -43.671875 C 26.894531 -42.710938 30.578125 -41.664062 35.203125 -40.53125 C 40.679688 -39.1875 45.109375 -37.851562 48.484375 -36.53125 C 51.859375 -35.21875 54.71875 -33.226562 57.0625 -30.5625 C 59.414062 -27.894531 60.59375 -24.285156 60.59375 -19.734375 C 60.59375 -15.960938 59.578125 -12.53125 57.546875 -9.4375 C 55.523438 -6.34375 52.414062 -3.890625 48.21875 -2.078125 C 44.019531 -0.265625 38.863281 0.640625 32.75 0.640625 Z M 32.75 0.640625 "/></g></g><g style="fill:#000000;fill-opacity:1;"><g transform="translate(66.429963, 84.002087)"><path style="stroke:none" d="M 39.46875 -56.53125 C 44.726562 -56.53125 49.488281 -55.335938 53.75 -52.953125 C 58.019531 -50.578125 61.363281 -47.21875 63.78125 -42.875 C 66.207031 -38.539062 67.421875 -33.597656 67.421875 -28.046875 C 67.421875 -22.429688 66.207031 -17.453125 63.78125 -13.109375 C 61.363281 -8.773438 58.039062 -5.414062 53.8125 -3.03125 C 49.582031 -0.65625 44.800781 0.53125 39.46875 0.53125 C 34.914062 0.53125 30.804688 -0.410156 27.140625 -2.296875 C 23.484375 -4.179688 20.484375 -6.9375 18.140625 -10.5625 L 18.140625 20.6875 L 10.5625 20.6875 L 10.5625 -56.109375 L 17.8125 -56.109375 L 17.8125 -45.015625 C 20.09375 -48.710938 23.097656 -51.554688 26.828125 -53.546875 C 30.554688 -55.535156 34.769531 -56.53125 39.46875 -56.53125 Z M 38.9375 -6.1875 C 42.84375 -6.1875 46.394531 -7.09375 49.59375 -8.90625 C 52.800781 -10.71875 55.3125 -13.296875 57.125 -16.640625 C 58.9375 -19.984375 59.84375 -23.785156 59.84375 -28.046875 C 59.84375 -32.316406 58.9375 -36.101562 57.125 -39.40625 C 55.3125 -42.71875 52.800781 -45.296875 49.59375 -47.140625 C 46.394531 -48.992188 42.84375 -49.921875 38.9375 -49.921875 C 34.957031 -49.921875 31.382812 -48.992188 28.21875 -47.140625 C 25.050781 -45.296875 22.5625 -42.71875 20.75 -39.40625 C 18.9375 -36.101562 18.03125 -32.316406 18.03125 -28.046875 C 18.03125 -23.785156 18.9375 -19.984375 20.75 -16.640625 C 22.5625 -13.296875 25.050781 -10.71875 28.21875 -8.90625 C 31.382812 -7.09375 34.957031 -6.1875 38.9375 -6.1875 Z M 38.9375 -6.1875 "/></g></g></g></g></g><g clip-rule="nonzero" clip-path="url(#161687075b)"><g transform="matrix(1,0,0,1,331,0)"><g clip-path="url(#e3f2c05ab2)"><g style="fill:#000000;fill-opacity:1;"><g transform="translate(0.368003, 84.002087)"><path style="stroke:none" d="M 17.8125 -45.125 C 19.59375 -48.894531 22.242188 -51.738281 25.765625 -53.65625 C 29.285156 -55.570312 33.640625 -56.53125 38.828125 -56.53125 L 38.828125 -49.171875 L 37.015625 -49.28125 C 31.109375 -49.28125 26.484375 -47.46875 23.140625 -43.84375 C 19.804688 -40.21875 18.140625 -35.132812 18.140625 -28.59375 L 18.140625 0 L 10.5625 0 L 10.5625 -56.109375 L 17.8125 -56.109375 Z M 17.8125 -45.125 "/></g></g></g></g></g></g></svg>